<svg width="25" height="24" viewBox="0 0 25 24" fill="none" xmlns="http://www.w3.org/2000/svg">
<path d="M17.4999 21C17.7651 21 18.0195 20.8947 18.207 20.7071C18.3945 20.5196 18.4999 20.2652 18.4999 20V14.65C18.4999 14.193 18.8159 13.806 19.2269 13.609C20.0779 13.2031 20.7581 12.5096 21.1475 11.6509C21.537 10.7923 21.6105 9.82363 21.3553 8.91599C21.1001 8.00835 20.5325 7.22003 19.7526 6.69017C18.9727 6.16032 18.0307 5.92297 17.0929 6.02003C16.7067 5.12224 16.0658 4.35732 15.2495 3.81987C14.4332 3.28241 13.4772 2.99597 12.4999 2.99597C11.5226 2.99597 10.5666 3.28241 9.75033 3.81987C8.93403 4.35732 8.29314 5.12224 7.9069 6.02003C6.96948 5.92365 6.02814 6.16133 5.24883 6.69117C4.46953 7.221 3.90231 8.00896 3.64718 8.91613C3.39206 9.8233 3.46541 10.7914 3.8543 11.6498C4.2432 12.5082 4.92266 13.2017 5.7729 13.608C6.1839 13.806 6.4999 14.193 6.4999 14.649V20C6.4999 20.2652 6.60526 20.5196 6.79279 20.7071C6.98033 20.8947 7.23468 21 7.4999 21H17.4999Z" stroke="white" stroke-width="2" stroke-linecap="round" stroke-linejoin="round"/>
<path d="M6.5 17H18.5" stroke="white" stroke-width="2" stroke-linecap="round" stroke-linejoin="round"/>
</svg>
