<svg width="321" height="320" viewBox="0 0 321 320" fill="none" xmlns="http://www.w3.org/2000/svg">
<path d="M101.236 308.371C120.122 315.994 141.127 315.123 161.434 314.131C186.734 312.902 214.132 310.797 232.98 293.523C250.036 277.888 255.924 253.574 263.06 231.296C276.206 190.157 296.692 148.64 289.914 105.933C285.55 78.7264 269.85 53.952 248.455 37.2864C227.06 20.6208 200.174 11.8784 173.294 10.9312C161.863 10.528 150.01 11.5968 139.956 17.184C132.91 21.1072 127.15 27.04 121.633 33.0432C99.156 57.6896 79.604 84.8576 63.3608 113.99C50.9256 136.256 40.276 160.23 37.6584 185.715C33.4088 226.797 61.1336 292.237 101.236 308.365V308.371Z" fill="#233944"/>
<path d="M191.713 86.6048C191.713 80.6656 193.607 74.7136 192.532 68.8768C191.38 62.5664 186.862 56.6592 188.231 50.3744C189.102 46.464 192.078 43.392 194.951 40.64L200.474 35.2512C201.07 34.5856 201.786 34.0352 202.586 33.6384C203.457 33.3312 204.372 33.1968 205.294 33.2352C211.028 33.1328 216.762 33.1904 222.49 33.408C227.239 33.5808 232.583 34.176 235.514 37.9072C238.132 41.2928 237.863 46.0928 236.935 50.2848C236.007 54.4832 234.586 58.7584 235.425 62.9696C236.487 68.32 241.121 73.2736 239.508 78.4832C238.81 80.7616 236.993 82.5408 236.142 84.768C235.438 86.5984 235.342 88.7744 233.94 90.1504C232.935 90.976 231.732 91.5328 230.452 91.7568C221.294 94.1824 212.129 97.2352 202.932 99.4176C195.367 101.222 191.687 93.3632 191.713 86.6112V86.6048Z" fill="url(#paint0_linear_2_807)"/>
<path d="M153.639 272.685C153.639 272.685 155.015 281.715 154.279 282.745C153.543 283.776 149.204 283.424 146.529 282.841C143.854 282.259 143.214 278.79 143.214 278.79L143.028 275.949L153.639 272.685Z" fill="#F7AF81"/>
<path d="M189.774 269.555C189.774 269.555 191.521 280.602 190.926 281.562C190.33 282.522 186.241 282.374 183.86 282.086C181.479 281.798 181.172 275.763 181.172 275.763L180.769 273.293L189.774 269.562V269.555Z" fill="#F7AF81"/>
<path d="M154.478 56.4736C154.676 56.9344 154.919 57.3696 155.214 57.7728C156.129 59.3856 155.687 61.5872 156.82 63.0592C157.102 61.8752 159.438 53.5296 158.33 52.992C158.068 52.864 156.692 54.0096 156.366 54.1632C155.374 54.592 153.985 54.9312 154.484 56.4736H154.478Z" fill="#7D3B3D"/>
<path d="M183.886 161.734L186.151 208.026L190.516 272.166C190.516 272.166 188.014 275.168 180.807 275.264L167.841 209.984L161.735 176.832L156.5 209.19L154.311 276.595C154.311 276.595 149.223 276.698 142.612 277.293L138.33 210.829L142.574 159.354L183.892 161.728L183.886 161.734Z" fill="#0E1118"/>
<path d="M183.886 161.734L186.151 208.026L190.516 272.166C190.516 272.166 188.014 275.168 180.807 275.264L167.841 209.984L161.735 176.832L156.5 209.19L154.311 276.595C154.311 276.595 149.223 276.698 142.612 277.293L138.33 210.829L142.574 159.354L183.892 161.728L183.886 161.734Z" fill="url(#paint1_linear_2_807)"/>
<path opacity="0.4" d="M171.534 228.576H187.553L186.81 220.186L170.702 224.384L171.534 228.576Z" fill="url(#paint2_linear_2_807)"/>
<path opacity="0.4" d="M139.374 224.602L139.246 225.088L139.514 229.261H155.847L156.09 224.077L139.374 224.602Z" fill="url(#paint3_linear_2_807)"/>
<path d="M146.945 86.7711L142.977 108.717C142.618 108.954 131.239 116.672 129.889 118.451C128.538 120.23 122.772 122.624 120.801 122.97C118.83 123.315 114.439 119.565 115.15 113.843C115.854 108.122 138.708 89.1519 141.095 87.8015C143.482 86.4511 146.951 86.7711 146.951 86.7711H146.945Z" fill="white"/>
<path d="M144.378 98.08L142.977 108.717C142.618 108.954 131.239 116.672 129.889 118.451C128.538 120.23 122.772 122.624 120.801 122.97C118.83 123.315 114.439 119.565 115.15 113.843L127.367 112.096L144.391 98.0736L144.378 98.08Z" fill="url(#paint4_linear_2_807)"/>
<path d="M178.343 163.642C174.855 165.562 170.599 165.984 166.561 165.965C161.486 165.946 156.41 165.363 151.463 164.23C149.031 163.674 146.554 162.95 144.609 161.376C140.052 157.69 142.087 150.47 142.337 145.459C143.495 118.79 140.769 87.9616 141.633 87.264C143.194 86.0096 158.305 81.312 158.305 81.312L174.01 82.6752L175.937 83.5456C179.252 85.0112 185.78 87.9104 186.772 88.7808C186.823 88.7808 186.862 88.9728 186.894 89.2288C186.996 90.016 187.054 91.7824 187.079 94.3232C187.143 100.256 187.079 110.368 187.13 121.926C187.13 123.149 187.13 124.384 187.13 125.645C187.226 137.05 190.644 154.336 180.078 162.502C179.527 162.931 178.945 163.302 178.343 163.635V163.642Z" fill="white"/>
<path d="M181.409 156.544C181.095 156.646 180.794 156.704 180.526 156.704C179.156 156.685 179.911 154.534 179.866 153.434C179.802 151.725 179.732 150.01 179.668 148.301C179.278 138.285 178.894 128.262 178.503 118.246L184.366 110.099L187.086 121.946C187.086 127.866 187.162 133.786 187.303 139.706C187.374 142.726 187.463 145.747 187.572 148.762C187.623 150.118 187.93 151.206 187.118 152.333C186.465 153.248 185.588 154.022 184.673 154.669C183.898 155.213 182.554 156.166 181.402 156.544H181.409Z" fill="url(#paint5_linear_2_807)"/>
<path d="M199.905 131.091C198.433 133.274 195.265 133.869 192.839 132.838C190.433 131.693 188.609 129.593 187.815 127.046C187.63 126.541 187.393 126.054 187.118 125.6C185.908 123.526 183.962 121.331 183.873 119.213C183.636 114.176 181.767 109.152 181.761 104.109C181.761 100.224 184.378 96.0383 185.78 92.0511C186.126 91.1167 186.382 90.1503 186.554 89.1711C186.657 89.1583 186.759 89.1583 186.862 89.1711C188.782 89.4143 191.137 93.7343 191.86 95.1679C193.082 97.7087 193.966 100.403 194.478 103.174C195.591 108.749 196.66 111.411 198.842 116.646C199.617 118.477 199.879 123.392 200.41 125.312C201.089 127.219 200.903 129.331 199.905 131.097V131.091Z" fill="white"/>
<path d="M198.894 116.672L194.746 121.907C194.746 121.907 192.078 114.253 191.329 110.624C190.65 107.411 188.474 98.2272 187.054 94.2912C186.906 93.8688 186.74 93.4464 186.548 93.0432C186.343 92.6848 186.087 92.352 185.786 92.064C182.945 89.2096 174.311 84.832 174.311 84.832L175.905 83.5264C179.22 84.992 185.748 87.8912 186.74 88.7616C186.791 88.7616 186.83 88.9536 186.862 89.2096C188.782 89.4528 191.137 93.7728 191.86 95.2064C193.082 97.7472 193.966 100.442 194.478 103.213C195.591 108.781 196.66 111.443 198.881 116.672H198.894Z" fill="url(#paint6_linear_2_807)"/>
<path d="M174.478 71.2C174.478 71.2 173.473 78.5088 174.279 81.216C175.079 83.9232 171.367 92.0256 165.857 92.5568C160.353 93.088 159.508 83.6928 159.399 82.592C159.297 81.4912 160.91 80.7872 160.103 78.08C159.303 75.3728 173.626 67.9424 174.471 71.1936L174.478 71.2Z" fill="#F7AF81"/>
<path d="M160.11 78.048C160.558 80.2688 160.474 82.56 159.886 84.7424C161.345 85.8496 162.689 87.7504 164.25 87.6032C167.546 87.3088 172.257 79.936 174.01 74.784C174.01 74.688 174.074 74.592 174.1 74.496C174.26 72.6464 174.452 71.2 174.452 71.2C173.639 67.9488 159.322 75.3472 160.116 78.048H160.11Z" fill="#F69771"/>
<path d="M156.5 55.1616C156.5 55.1616 155.252 69.5296 156.314 73.408C157.377 77.28 160.679 80.64 163.982 80.6784C167.284 80.7168 172.308 77.9968 174.567 73.0432C176.826 68.0896 178.055 55.9424 177.524 54.2784C176.993 52.6144 173.703 47.3536 164.865 48.064C158.785 48.5504 156.526 52.96 156.5 55.168V55.1616Z" fill="#F7AF81"/>
<path d="M175.438 63.3471C175.438 63.3471 175.694 59.9871 177.991 60.8959C180.295 61.8047 178.087 68.1023 177.031 68.7487C176.57 69.1007 176.014 69.3119 175.438 69.3695" fill="#F7AF81"/>
<path d="M124.455 119.552C124.455 119.552 129.575 118.163 127.79 110.426C126.004 102.688 119.534 79.8911 119.534 79.8911L113.678 84.5951C113.678 84.5951 111.642 115.891 115.918 118.624C118.465 120.237 121.614 120.582 124.449 119.558L124.455 119.552Z" fill="#F7AF81"/>
<path d="M119.534 79.9167C119.534 79.9167 120.404 75.8655 119.988 74.7839C119.572 73.7023 115.297 65.9455 113.607 67.0719C111.918 68.1983 109.518 75.6735 109.326 76.1791C109.134 76.6847 113.678 84.5887 113.678 84.5887L119.534 79.9103V79.9167Z" fill="#F7AF81"/>
<path d="M201.21 130.323L215.758 110.528L215.329 98.5919L191.162 123.475C188.858 125.939 188.993 129.805 191.457 132.109C191.866 132.493 192.327 132.819 192.826 133.075L194.625 133.261C197.185 133.53 199.7 132.416 201.21 130.33V130.323Z" fill="#F7AF81"/>
<path d="M213.793 111.309C215.15 111.027 216.481 110.63 217.774 110.112C218.836 109.542 222.222 97.4591 221.262 96.6591C220.302 95.8591 216.321 93.5871 215.214 94.3231C214.106 95.0591 208.129 100.8 208.129 100.8C208.129 100.8 209.818 112.518 213.793 111.315V111.309Z" fill="#F7AF81"/>
<path d="M158.311 81.3183L159.783 80.2303C159.783 80.2303 161.53 89.0879 164.686 89.9775C164.686 89.9775 169.722 91.9487 174.049 80.3775L175.706 83.7183C175.706 83.7183 172.647 90.976 170.996 91.744C169.345 92.512 164.577 97.1327 160.289 90.9759C158.254 88.0191 158.311 81.3183 158.311 81.3183Z" fill="#0E1118"/>
<path d="M158.311 81.3183L159.783 80.2303C159.783 80.2303 161.53 89.0879 164.686 89.9775C164.686 89.9775 169.722 91.9487 174.049 80.3775L175.706 83.7183C175.706 83.7183 172.647 90.976 170.996 91.744C169.345 92.512 164.577 97.1327 160.289 90.9759C158.254 88.0191 158.311 81.3183 158.311 81.3183Z" fill="url(#paint7_linear_2_807)"/>
<path d="M122.234 70.8224C123.054 70.0864 123.758 69.2352 124.321 68.2944C124.404 68.1472 124.43 67.9744 124.391 67.8144C124.34 67.712 124.257 67.6288 124.154 67.5776C123.399 67.1488 122.478 67.1488 121.722 67.5776C120.98 68.0064 120.404 68.672 120.084 69.472C119.975 69.8112 119.802 70.1248 119.578 70.4064C118.996 70.8352 118.241 70.9632 117.543 70.7456C117.37 70.688 117.191 70.688 117.018 70.7456C116.75 70.8864 116.711 71.2512 116.737 71.5584C116.814 72.512 118.017 75.744 119.418 75.5008C119.994 75.3984 120.289 73.7536 120.526 73.2928C120.98 72.3968 121.556 71.5648 122.234 70.8224Z" fill="#F7AF81"/>
<path d="M183.354 45.5231C181.927 46.0927 180.423 46.4576 178.894 46.6048L178.004 58.336L177.889 59.84C177.127 59.0272 176.346 58.3167 175.559 57.6831C174.58 56.8959 173.582 56.2432 172.583 55.6992C164.513 51.2831 156.353 54.0608 156.353 54.0608L158.036 43.616C158.036 43.616 159.047 42.592 154.081 42.0288C150.964 41.6704 151.386 38.9632 152.34 37.248C153.287 35.5264 156.545 36.864 156.545 36.864C156.545 36.864 155.975 34.3808 160.558 32.2816C165.134 30.176 167.815 35.7184 167.815 35.7184C168.57 33.0432 172.59 32.2816 172.59 32.2816C180.807 32.2816 177.742 38.6496 177.742 38.6496C179.444 37.3696 181.594 36.8832 183.662 37.28C183.809 37.3056 183.962 37.3376 184.11 37.376C187.713 38.4 186.151 44.5055 183.354 45.5231Z" fill="white"/>
<path d="M174.446 66.3552C175.674 64.64 176.654 62.7584 177.37 60.7744C177.646 61.248 178.074 61.6064 178.58 61.792C179.105 61.9712 179.687 61.7728 179.994 61.312C180.206 60.8576 180.116 60.32 179.77 59.9616C179.425 59.6096 178.977 59.3856 178.49 59.3216C178.356 59.3088 178.222 59.2576 178.113 59.1744C177.889 58.9312 178.113 58.5024 177.985 58.2208C177.876 58.0992 177.735 58.0096 177.575 57.9776C176.782 57.7152 175.54 57.1072 174.772 56.928C174.369 58.208 175.252 60.0704 175.156 61.472C175.041 63.1104 174.804 64.7424 174.452 66.3488L174.446 66.3552Z" fill="#7D3B3D"/>
<path d="M176.084 73.92C176.052 74.2976 175.975 74.6624 175.847 75.0208C175.482 75.7312 174.938 76.3328 174.266 76.768C174.177 76.8512 174.062 76.9024 173.946 76.9344C173.697 76.9344 173.486 76.7424 173.46 76.4992C173.434 76.256 173.479 76.0128 173.582 75.7952L175.271 70.9952C175.406 70.6432 175.514 70.2784 175.585 69.9072C175.598 69.7344 175.642 69.5616 175.706 69.4016C175.828 69.1648 176.257 68.8256 176.577 68.9856C176.897 69.1456 176.628 70.0352 176.577 70.3296L176.078 73.9328L176.084 73.92Z" fill="#7D3B3D"/>
<path d="M189.934 104.998L242.452 92.8383L233.684 92.2495L195.655 101.331L189.934 104.998Z" fill="#0E1118"/>
<path d="M189.934 104.998L242.452 92.8383L233.684 92.2495L195.655 101.331L189.934 104.998Z" fill="url(#paint8_linear_2_807)"/>
<path d="M195.687 101.344C195.687 101.344 191.514 82.6624 207.905 79.104C228.154 74.7392 233.652 92.2624 233.652 92.2624L195.694 101.344H195.687Z" fill="#0E1118"/>
<path d="M233.684 92.2624L195.687 101.344C195.687 101.344 191.514 82.6624 207.905 79.104C208.871 78.8928 209.806 78.7392 210.708 78.624C227.284 76.512 232.788 89.8496 233.556 91.9744L233.684 92.2624Z" fill="url(#paint9_linear_2_807)"/>
<path d="M233.582 91.9744L202.926 99.3024C202.926 99.3024 199.591 84.288 210.778 78.624C227.278 76.512 232.82 89.824 233.582 91.9744Z" fill="url(#paint10_linear_2_807)"/>
<path d="M207.303 79.3471C208.286 79.3471 209.082 78.5505 209.082 77.5679C209.082 76.5853 208.286 75.7887 207.303 75.7887C206.321 75.7887 205.524 76.5853 205.524 77.5679C205.524 78.5505 206.321 79.3471 207.303 79.3471Z" fill="#0E1118"/>
<path d="M131.169 282.016C129.652 282.592 128.046 283.482 128.046 285.427C128.052 286.195 128.321 286.944 128.794 287.546C130.65 290.042 134.087 290.163 137.108 290.042C142.74 289.754 148.34 288.992 153.85 287.776C154.228 287.725 154.586 287.578 154.887 287.347C155.182 287.021 155.361 286.611 155.412 286.176C155.802 284.275 155.86 282.33 155.585 280.41C155.508 279.853 154.996 279.469 154.446 279.546C154.266 279.571 154.1 279.642 153.953 279.757C152.858 280.653 151.47 281.107 150.055 281.03C146.695 280.813 145.415 277.875 141.985 278.874C138.414 279.91 134.612 280.691 131.169 282.016Z" fill="#0E1118"/>
<path d="M167.38 280.966C165.863 281.542 164.257 282.432 164.25 284.371C164.27 285.146 164.532 285.888 165.012 286.502C166.862 288.998 170.305 289.12 173.326 288.992C178.958 288.704 184.558 287.942 190.068 286.726C190.446 286.675 190.804 286.528 191.105 286.298C191.399 285.971 191.585 285.562 191.63 285.126C192.02 283.206 192.078 281.235 191.796 279.296C191.719 278.758 191.226 278.387 190.695 278.464C190.522 278.49 190.356 278.56 190.215 278.669C189.121 279.61 187.713 280.096 186.273 280.032C182.913 279.808 181.62 276.877 178.202 277.869C174.631 278.874 170.868 279.648 167.386 280.973L167.38 280.966Z" fill="#0E1118"/>
<path d="M131.169 282.016C129.652 282.592 128.046 283.482 128.046 285.427C128.052 286.195 128.321 286.944 128.794 287.546C130.65 290.042 134.087 290.163 137.108 290.042C142.74 289.754 148.34 288.992 153.85 287.776C154.228 287.725 154.586 287.578 154.887 287.347C155.182 287.021 155.361 286.611 155.412 286.176C155.802 284.275 155.86 282.33 155.585 280.41C155.508 279.853 154.996 279.469 154.446 279.546C154.266 279.571 154.1 279.642 153.953 279.757C152.858 280.653 151.47 281.107 150.055 281.03C146.695 280.813 145.415 277.875 141.985 278.874C138.414 279.91 134.612 280.691 131.169 282.016Z" fill="url(#paint11_linear_2_807)"/>
<path d="M167.38 280.966C165.863 281.542 164.257 282.432 164.25 284.371C164.27 285.146 164.532 285.888 165.012 286.502C166.862 288.998 170.305 289.12 173.326 288.992C178.958 288.704 184.558 287.942 190.068 286.726C190.446 286.675 190.804 286.528 191.105 286.298C191.399 285.971 191.585 285.562 191.63 285.126C192.02 283.206 192.078 281.235 191.796 279.296C191.719 278.758 191.226 278.387 190.695 278.464C190.522 278.49 190.356 278.56 190.215 278.669C189.121 279.61 187.713 280.096 186.273 280.032C182.913 279.808 181.62 276.877 178.202 277.869C174.631 278.874 170.868 279.648 167.386 280.973L167.38 280.966Z" fill="url(#paint12_linear_2_807)"/>
<path d="M160.75 103.296C161.347 103.296 161.831 102.812 161.831 102.214C161.831 101.617 161.347 101.133 160.75 101.133C160.152 101.133 159.668 101.617 159.668 102.214C159.668 102.812 160.152 103.296 160.75 103.296Z" fill="#0E1118"/>
<path d="M158.644 117.504C159.241 117.504 159.726 117.02 159.726 116.422C159.726 115.825 159.241 115.341 158.644 115.341C158.047 115.341 157.562 115.825 157.562 116.422C157.562 117.02 158.047 117.504 158.644 117.504Z" fill="#0E1118"/>
<path d="M158.26 134.566C158.857 134.566 159.342 134.082 159.342 133.485C159.342 132.887 158.857 132.403 158.26 132.403C157.663 132.403 157.178 132.887 157.178 133.485C157.178 134.082 157.663 134.566 158.26 134.566Z" fill="#0E1118"/>
<path d="M158.9 148.64C159.497 148.64 159.982 148.156 159.982 147.558C159.982 146.961 159.497 146.477 158.9 146.477C158.303 146.477 157.818 146.961 157.818 147.558C157.818 148.156 158.303 148.64 158.9 148.64Z" fill="#0E1118"/>
<path d="M159.15 169.658C159.747 169.658 160.231 169.173 160.231 168.576C160.231 167.979 159.747 167.494 159.15 167.494C158.552 167.494 158.068 167.979 158.068 168.576C158.068 169.173 158.552 169.658 159.15 169.658Z" fill="#0E1118"/>
<path d="M183.892 150.752C185.178 150.611 186.484 150.79 187.687 151.264C188.846 151.846 189.71 153.235 189.242 154.438C188.916 155.046 188.494 155.61 188.001 156.096C186.817 157.638 186.772 159.744 186.791 161.696L187.207 218.957C187.207 220.909 187.015 223.258 185.287 224.192C184.506 224.531 183.655 224.678 182.81 224.621C168.122 224.806 153.441 224.96 138.759 225.082C137.23 225.082 135.425 224.96 134.65 223.642C134.337 222.995 134.19 222.278 134.222 221.555C133.441 198.848 135.585 176.134 140.602 153.971C140.718 153.107 141.076 152.294 141.639 151.622C142.51 150.752 147.38 151.808 148.686 151.782C152.654 151.712 156.615 151.558 160.577 151.443L183.892 150.746V150.752Z" fill="#0E1118"/>
<path d="M183.892 150.752C185.178 150.611 186.484 150.79 187.687 151.264C188.846 151.846 189.71 153.235 189.242 154.438C188.916 155.046 188.494 155.61 188.001 156.096C186.817 157.638 186.772 159.744 186.791 161.696L187.207 218.957C187.207 220.909 187.015 223.258 185.287 224.192C184.506 224.531 183.655 224.678 182.81 224.621C168.122 224.806 153.441 224.96 138.759 225.082C137.23 225.082 135.425 224.96 134.65 223.642C134.337 222.995 134.19 222.278 134.222 221.555C133.441 198.848 135.585 176.134 140.602 153.971C140.718 153.107 141.076 152.294 141.639 151.622C142.51 150.752 147.38 151.808 148.686 151.782C152.654 151.712 156.615 151.558 160.577 151.443L183.892 150.746V150.752Z" fill="url(#paint13_linear_2_807)"/>
<path opacity="0.54" d="M183.354 45.5232C181.927 46.0928 180.423 46.4576 178.894 46.6048L178.004 58.336C177.172 58.1696 176.346 57.9712 175.559 57.6832C174.58 57.3248 173.671 56.8384 172.91 56.1152C172.775 55.9936 172.654 55.8656 172.583 55.6992C172.577 55.6864 172.577 55.68 172.57 55.6672C172.436 55.3152 172.596 54.9248 172.75 54.5792C173.716 52.3456 174.247 49.9264 174.305 47.4944C174.318 46.7904 174.292 46.0544 173.991 45.4144C173.46 44.2752 172.218 43.6736 171.054 43.2256C168.986 42.4256 166.842 41.824 164.666 41.4208C166.561 41.0752 168.526 41.3696 170.433 41.0816C173.607 40.6016 176.468 38.3808 177.716 35.4176C178.055 37.9776 176.73 40.6848 174.49 41.9712C174.708 41.9712 174.919 41.888 175.086 41.7536C175.54 42.3296 176.276 42.6368 177.006 42.7264C177.735 42.816 178.471 42.7072 179.194 42.592C180.231 42.4256 181.281 42.2208 182.202 41.7152C183.124 41.216 183.905 40.352 184.058 39.3152C184.167 38.5984 183.969 37.92 183.662 37.28C183.809 37.3056 183.962 37.3376 184.11 37.376C187.713 38.4 186.151 44.5056 183.354 45.5232Z" fill="url(#paint14_linear_2_807)"/>
<defs>
<linearGradient id="paint0_linear_2_807" x1="212.615" y1="44.4224" x2="216.052" y2="97.9136" gradientUnits="userSpaceOnUse">
<stop offset="0.02" stop-color="white" stop-opacity="0"/>
<stop offset="0.39" stop-color="white" stop-opacity="0.39"/>
<stop offset="1" stop-color="white"/>
</linearGradient>
<linearGradient id="paint1_linear_2_807" x1="156.314" y1="133.312" x2="174.657" y2="361.433" gradientUnits="userSpaceOnUse">
<stop stop-color="#231F20" stop-opacity="0"/>
<stop offset="1" stop-color="#231F20"/>
</linearGradient>
<linearGradient id="paint2_linear_2_807" x1="170.702" y1="224.384" x2="187.553" y2="224.384" gradientUnits="userSpaceOnUse">
<stop stop-color="#231F20" stop-opacity="0"/>
<stop offset="1" stop-color="#231F20"/>
</linearGradient>
<linearGradient id="paint3_linear_2_807" x1="147.482" y1="222.694" x2="148.404" y2="234.163" gradientUnits="userSpaceOnUse">
<stop stop-color="#231F20" stop-opacity="0"/>
<stop offset="1" stop-color="#231F20"/>
</linearGradient>
<linearGradient id="paint4_linear_2_807" x1="143.079" y1="58.5472" x2="61.7608" y2="364.422" gradientUnits="userSpaceOnUse">
<stop stop-color="#231F20" stop-opacity="0"/>
<stop offset="1" stop-color="#231F20"/>
</linearGradient>
<linearGradient id="paint5_linear_2_807" x1="195.239" y1="88.9407" x2="147.047" y2="270.202" gradientUnits="userSpaceOnUse">
<stop stop-color="#231F20" stop-opacity="0"/>
<stop offset="1" stop-color="#231F20"/>
</linearGradient>
<linearGradient id="paint6_linear_2_807" x1="194.209" y1="72.1408" x2="112.89" y2="378.016" gradientUnits="userSpaceOnUse">
<stop stop-color="#231F20" stop-opacity="0"/>
<stop offset="1" stop-color="#231F20"/>
</linearGradient>
<linearGradient id="paint7_linear_2_807" x1="167.514" y1="62.5791" x2="166.369" y2="108.051" gradientUnits="userSpaceOnUse">
<stop stop-color="#231F20" stop-opacity="0"/>
<stop offset="1" stop-color="#231F20"/>
</linearGradient>
<linearGradient id="paint8_linear_2_807" x1="211.239" y1="84.2303" x2="218.113" y2="104.614" gradientUnits="userSpaceOnUse">
<stop stop-color="#231F20" stop-opacity="0"/>
<stop offset="1" stop-color="#231F20"/>
</linearGradient>
<linearGradient id="paint9_linear_2_807" x1="208.148" y1="71.936" x2="215.79" y2="100.979" gradientUnits="userSpaceOnUse">
<stop offset="0.02" stop-color="white" stop-opacity="0"/>
<stop offset="0.39" stop-color="white" stop-opacity="0.39"/>
<stop offset="1" stop-color="white"/>
</linearGradient>
<linearGradient id="paint10_linear_2_807" x1="211.886" y1="71.4304" x2="219.303" y2="99.6288" gradientUnits="userSpaceOnUse">
<stop offset="0.02" stop-color="white" stop-opacity="0"/>
<stop offset="0.39" stop-color="white" stop-opacity="0.39"/>
<stop offset="1" stop-color="white"/>
</linearGradient>
<linearGradient id="paint11_linear_2_807" x1="138.702" y1="253.568" x2="147.111" y2="332.8" gradientUnits="userSpaceOnUse">
<stop stop-color="#231F20" stop-opacity="0"/>
<stop offset="1" stop-color="#231F20"/>
</linearGradient>
<linearGradient id="paint12_linear_2_807" x1="174.804" y1="251.52" x2="183.207" y2="330.752" gradientUnits="userSpaceOnUse">
<stop stop-color="#231F20" stop-opacity="0"/>
<stop offset="1" stop-color="#231F20"/>
</linearGradient>
<linearGradient id="paint13_linear_2_807" x1="161.908" y1="245.76" x2="161.53" y2="120.422" gradientUnits="userSpaceOnUse">
<stop stop-color="#231F20" stop-opacity="0"/>
<stop offset="1" stop-color="#231F20"/>
</linearGradient>
<linearGradient id="paint14_linear_2_807" x1="152.218" y1="41.0624" x2="279.988" y2="70.0352" gradientUnits="userSpaceOnUse">
<stop stop-color="#231F20" stop-opacity="0"/>
<stop offset="1" stop-color="#231F20"/>
</linearGradient>
</defs>
</svg>
