<svg width="50" height="50" viewBox="0 0 50 50" fill="none" xmlns="http://www.w3.org/2000/svg">
<g clip-path="url(#clip0_13_312)">
<path d="M25.0003 0.000244141C11.193 0.000244141 0 11.1922 0 25.0005C0 38.8067 11.193 49.9996 25.0003 49.9996C38.807 49.9996 50 38.8067 50 25.0005C50 11.1921 38.807 0.000244141 25.0003 0.000244141Z" fill="#4ABC96"/>
<path d="M38.7124 17.0358C38.24 16.2146 37.7248 16.0374 37.0935 15.6817L26.418 10.6927C25.6403 10.3296 24.3798 10.3296 23.6025 10.6927L12.9268 15.6817C12.0894 16.1555 11.5741 16.5848 11.2521 17.1646C10.93 17.7442 10.8441 18.4313 10.7546 19.4613V32.6311C10.7546 33.5902 11.4775 33.9757 12.2044 34.3677L23.1981 39.2884C23.2461 39.2884 24.3918 39.5795 25.036 39.5795C25.6801 39.5795 26.8021 39.2884 26.8021 39.2884L37.7958 34.3677C38.4978 34.008 39.2456 33.5902 39.2456 32.6311V19.4614C39.2223 18.4529 39.1648 17.8224 38.7124 17.0358Z" fill="#E0E0E2"/>
<path d="M23.274 22.7385L12.7443 18.0256C11.9774 18.0256 11.3557 18.7705 11.3557 19.689V32.303C11.3557 33.2216 11.9605 33.5894 12.7443 33.9664L23.274 38.6793C24.0409 38.6793 24.6626 37.9345 24.6626 37.016V25.2799C24.6625 24.3613 24.1998 23.2237 23.274 22.7385Z" fill="white"/>
<path d="M37.2557 18.0256L26.726 22.7385C25.9162 23.2236 25.3374 24.3613 25.3374 25.2799V37.016C25.3374 37.9345 25.9591 38.6793 26.726 38.6793L37.2557 33.9664C37.9823 33.6216 38.6443 33.2216 38.6443 32.303V19.689C38.6443 18.7705 38.0226 18.0256 37.2557 18.0256Z" fill="white"/>
<path d="M36.5832 16.0689L26.3581 11.2904C25.6133 10.9426 24.4059 10.9426 23.6613 11.2904L13.4362 16.0689C12.6916 16.4171 12.6915 16.9813 13.4362 17.3294L23.6613 22.1077C24.4059 22.4558 25.6134 22.4558 26.3581 22.1077L36.5832 17.3294C37.3278 16.9813 37.3278 16.417 36.5832 16.0689Z" fill="white"/>
<path d="M37.6485 30.7559C37.425 29.9386 36.6197 29.4468 35.8498 29.6574C35.0799 29.8679 34.6369 30.7011 34.8604 31.5184C35.0839 32.3356 35.8893 32.8275 36.6592 32.6169C37.4291 32.4064 37.872 31.5732 37.6485 30.7559Z" fill="#999999"/>
<path d="M33.5694 28.2642C33.3459 27.4469 32.5406 26.9551 31.7707 27.1657C31.0008 27.3762 30.5578 28.2094 30.7813 29.0267C31.0048 29.8439 31.8102 30.3358 32.5801 30.1252C33.35 29.9147 33.7929 29.0815 33.5694 28.2642Z" fill="#999999"/>
<path d="M29.4894 25.7728C29.2659 24.9556 28.4605 24.4639 27.6906 24.6744C26.9206 24.885 26.4776 25.7182 26.7011 26.5353C26.9245 27.3525 27.7299 27.8442 28.4999 27.6336C29.2698 27.4231 29.7128 26.5899 29.4894 25.7728Z" fill="#999999"/>
<path d="M18.7449 17.2074C19.7409 17.2074 20.5483 16.7268 20.5483 16.1339C20.5483 15.5409 19.7409 15.0603 18.7449 15.0603C17.7488 15.0603 16.9414 15.5409 16.9414 16.1339C16.9414 16.7268 17.7488 17.2074 18.7449 17.2074Z" fill="#999999"/>
<path d="M24.4133 14.7596C25.4093 14.7596 26.2168 14.279 26.2168 13.6861C26.2168 13.0932 25.4093 12.6125 24.4133 12.6125C23.4173 12.6125 22.6099 13.0932 22.6099 13.6861C22.6099 14.279 23.4173 14.7596 24.4133 14.7596Z" fill="#999999"/>
<path d="M25.9592 20.4927C26.9552 20.4927 27.7627 20.012 27.7627 19.4191C27.7627 18.8262 26.9552 18.3456 25.9592 18.3456C24.9632 18.3456 24.1558 18.8262 24.1558 19.4191C24.1558 20.012 24.9632 20.4927 25.9592 20.4927Z" fill="#999999"/>
<path d="M31.6269 18.0449C32.623 18.0449 33.4304 17.5643 33.4304 16.9714C33.4304 16.3785 32.623 15.8978 31.6269 15.8978C30.6309 15.8978 29.8235 16.3785 29.8235 16.9714C29.8235 17.5643 30.6309 18.0449 31.6269 18.0449Z" fill="#999999"/>
<path d="M22.3516 18.8823C23.3476 18.8823 24.155 18.4017 24.155 17.8088C24.155 17.2159 23.3476 16.7352 22.3516 16.7352C21.3555 16.7352 20.5481 17.2159 20.5481 17.8088C20.5481 18.4017 21.3555 18.8823 22.3516 18.8823Z" fill="#999999"/>
<path d="M28.02 16.4346C29.016 16.4346 29.8235 15.9539 29.8235 15.361C29.8235 14.7681 29.016 14.2875 28.02 14.2875C27.024 14.2875 26.2166 14.7681 26.2166 15.361C26.2166 15.9539 27.024 16.4346 28.02 16.4346Z" fill="#999999"/>
<path d="M15.7752 22.3769C15.5229 21.5596 14.7064 21.0859 13.9515 21.3189C13.1966 21.5519 12.7891 22.4034 13.0413 23.2207C13.2936 24.038 14.11 24.5117 14.865 24.2787C15.6199 24.0457 16.0274 23.1942 15.7752 22.3769Z" fill="#999999"/>
<path d="M22.876 24.8807C22.6237 24.0634 21.8072 23.5896 21.0523 23.8226C20.2973 24.0556 19.8898 24.9071 20.1421 25.7245C20.3944 26.5419 21.2109 27.0156 21.9658 26.7826C22.7207 26.5496 23.1282 25.6981 22.876 24.8807Z" fill="#999999"/>
<path d="M15.0735 31.0938C14.8213 30.2765 14.0048 29.8028 13.2498 30.0358C12.4949 30.2688 12.0874 31.1203 12.3396 31.9376C12.5919 32.7549 13.4084 33.2286 14.1633 32.9956C14.9183 32.7626 15.3258 31.9112 15.0735 31.0938Z" fill="#999999"/>
<path d="M18.8516 28.0013C18.5993 27.184 17.7828 26.7102 17.0279 26.9432C16.2729 27.1762 15.8654 28.0277 16.1177 28.8451C16.37 29.6625 17.1865 30.1362 17.9414 29.9032C18.6963 29.6702 19.1038 28.8187 18.8516 28.0013Z" fill="#999999"/>
<path d="M22.1443 33.6636C21.8921 32.8462 21.0757 32.3724 20.3207 32.6053C19.5658 32.8382 19.1582 33.6896 19.4104 34.507C19.6625 35.3244 20.479 35.7983 21.2339 35.5654C21.9889 35.3324 22.3965 34.481 22.1443 33.6636Z" fill="#999999"/>
</g>
<defs>
<clipPath id="clip0_13_312">
<rect width="50" height="50" fill="white"/>
</clipPath>
</defs>
</svg>
