<svg width="23" height="24" viewBox="0 0 23 24" fill="none" xmlns="http://www.w3.org/2000/svg">
<path d="M17.7373 6.50525H16.7627V5.48811C16.765 4.76635 16.6302 4.05127 16.3659 3.38427C16.1016 2.71728 15.7132 2.11161 15.2232 1.60234C11.9731 -1.84291 6.20636 0.643603 6.23733 5.4882L6.23729 6.50525H5.26271C3.86695 6.50525 2.52836 7.08393 1.54141 8.11398C0.554463 9.14403 0 10.5411 0 11.9978C0 13.4545 0.554463 14.8515 1.54141 15.8816C2.52836 16.9116 3.86695 17.4903 5.26271 17.4903H6.23729V18.5075C6.23729 19.9642 6.79175 21.3612 7.7787 22.3913C8.76565 23.4213 10.1042 24 11.5 24C12.8958 24 14.2343 23.4213 15.2213 22.3913C16.2082 21.3612 16.7627 19.9642 16.7627 18.5075V17.4903H17.7373C19.133 17.4903 20.4716 16.9116 21.4586 15.8816C22.4455 14.8515 23 13.4545 23 11.9978C23 10.5411 22.4455 9.14403 21.4586 8.11398C20.4716 7.08393 19.133 6.50525 17.7373 6.50525ZM7.40678 5.48811C7.40549 4.92625 7.51042 4.36965 7.71555 3.85017C7.92068 3.33069 8.22198 2.85855 8.6022 2.46078C8.98241 2.06301 9.43408 1.74742 9.93133 1.5321C10.4286 1.31677 10.9616 1.20594 11.5 1.20594C12.0384 1.20594 12.5714 1.31678 13.0687 1.53211C13.5659 1.74744 14.0176 2.06302 14.3978 2.4608C14.778 2.85857 15.0793 3.33071 15.2844 3.85019C15.4896 4.36967 15.5945 4.92628 15.5932 5.48814L15.5932 6.50525H14.4237V5.48811C14.2867 1.44989 8.71294 1.45021 8.57627 5.48816V13.8286H7.40678V5.48811ZM13.2542 5.48811V6.50525H9.74576V5.48811C9.74576 5.00254 9.93058 4.53686 10.2596 4.19351C10.5885 3.85016 11.0347 3.65727 11.5 3.65727C11.9653 3.65727 12.4114 3.85016 12.7404 4.19351C13.0694 4.53686 13.2542 5.00254 13.2542 5.48811ZM9.74576 10.1669H13.2542V13.8286H9.74576V10.1669ZM5.26271 16.2698C4.17712 16.2698 3.136 15.8197 2.36837 15.0185C1.60074 14.2174 1.16949 13.1308 1.16949 11.9978C1.16949 10.8648 1.60074 9.7782 2.36837 8.97705C3.136 8.1759 4.17712 7.72581 5.26271 7.72581H6.23729V8.94638H5.26271C1.39358 9.08931 1.39364 14.9065 5.26276 15.0492H13.2542V16.2698H5.26271ZM6.23729 10.1669V13.8286H5.26271C4.80018 13.8243 4.358 13.6295 4.03239 13.2866C3.70679 12.9437 3.52411 12.4805 3.52412 11.9978C3.52412 11.515 3.70681 11.0518 4.03242 10.7089C4.35804 10.366 4.80022 10.1713 5.26276 10.1669H6.23729ZM13.2542 17.4903V18.5075C13.2542 18.993 13.0694 19.4587 12.7404 19.8021C12.4114 20.1454 11.9653 20.3383 11.5 20.3383C11.0347 20.3383 10.5885 20.1454 10.2596 19.8021C9.93058 19.4587 9.74576 18.993 9.74576 18.5075V17.4903H13.2542ZM15.5932 18.5075C15.5932 19.6405 15.162 20.7271 14.3943 21.5282C13.6267 22.3294 12.5856 22.7794 11.5 22.7794C10.4144 22.7794 9.37328 22.3294 8.60566 21.5282C7.83803 20.7271 7.40678 19.6405 7.40678 18.5075V17.4903H8.57627V18.5075C8.71323 22.5455 14.287 22.5455 14.4237 18.5074V10.1669H15.5932V18.5075ZM20.6336 15.0206C20.2539 15.4183 19.8025 15.7335 19.3053 15.9479C18.8082 16.1623 18.2752 16.2717 17.7373 16.2698H16.7627V15.0492H17.7373C18.5127 15.0492 19.2564 14.7277 19.8047 14.1555C20.353 13.5832 20.661 12.8071 20.661 11.9978C20.661 11.1885 20.353 10.4124 19.8047 9.84012C19.2564 9.26787 18.5127 8.94638 17.7373 8.94638H9.74576V7.72581H17.7373C21.3468 7.70083 23.2012 12.382 20.6336 15.0206ZM16.7627 13.8286V10.1669H17.7373C18.1998 10.1713 18.642 10.3661 18.9676 10.709C19.2932 11.0518 19.4759 11.5151 19.4759 11.9978C19.4759 12.4806 19.2932 12.9438 18.9676 13.2867C18.642 13.6295 18.1998 13.8243 17.7372 13.8286H16.7627Z" fill="#2B2E33"/>
</svg>
