<svg width="16" height="17" viewBox="0 0 16 17" fill="none" xmlns="http://www.w3.org/2000/svg">
<path d="M5.66683 10.1667C6.10886 10.1667 6.53278 9.99107 6.84534 9.67851C7.1579 9.36595 7.3335 8.94203 7.3335 8.5C7.3335 7.58 7.00016 7.16667 6.66683 6.5C5.95216 5.07133 6.5175 3.79733 8.00016 2.5C8.3335 4.16667 9.3335 5.76667 10.6668 6.83333C12.0002 7.9 12.6668 9.16667 12.6668 10.5C12.6668 11.1128 12.5461 11.7197 12.3116 12.2859C12.0771 12.852 11.7333 13.3665 11.3 13.7998C10.8667 14.2332 10.3522 14.5769 9.78602 14.8114C9.21983 15.046 8.613 15.1667 8.00016 15.1667C7.38733 15.1667 6.78049 15.046 6.21431 14.8114C5.64812 14.5769 5.13367 14.2332 4.70033 13.7998C4.26699 13.3665 3.92325 12.852 3.68872 12.2859C3.4542 11.7197 3.3335 11.1128 3.3335 10.5C3.3335 9.73133 3.62216 8.97067 4.00016 8.5C4.00016 8.94203 4.17576 9.36595 4.48832 9.67851C4.80088 9.99107 5.2248 10.1667 5.66683 10.1667Z" stroke="#DB7A2B" stroke-width="1.5" stroke-linecap="round" stroke-linejoin="round"/>
</svg>
