<svg width="16" height="16" viewBox="0 0 16 16" fill="none" xmlns="http://www.w3.org/2000/svg">
<path d="M1.33325 6.33332C1.33327 5.59145 1.55831 4.86704 1.97867 4.25576C2.39903 3.64448 2.99493 3.17509 3.68766 2.90959C4.38039 2.64408 5.13736 2.59495 5.85859 2.76868C6.57983 2.94242 7.2314 3.33084 7.72725 3.88265C7.76218 3.92 7.8044 3.94977 7.8513 3.97012C7.89821 3.99047 7.94879 4.00098 7.99992 4.00098C8.05105 4.00098 8.10163 3.99047 8.14853 3.97012C8.19544 3.94977 8.23766 3.92 8.27258 3.88265C8.76688 3.32725 9.4186 2.93556 10.141 2.75972C10.8634 2.58388 11.6222 2.63222 12.3165 2.89831C13.0108 3.1644 13.6075 3.63562 14.0273 4.24925C14.4471 4.86289 14.6701 5.58983 14.6666 6.33332C14.6666 7.85999 13.6666 8.99999 12.6666 9.99999L9.00525 13.542C8.88103 13.6847 8.72787 13.7993 8.55595 13.8782C8.38403 13.9571 8.19728 13.9986 8.00811 13.9997C7.81894 14.0009 7.63168 13.9619 7.45878 13.8851C7.28587 13.8084 7.13127 13.6957 7.00525 13.5547L3.33325 9.99999C2.33325 8.99999 1.33325 7.86665 1.33325 6.33332Z" fill="#D76261" stroke="#D76261" stroke-width="1.2" stroke-linecap="round" stroke-linejoin="round"/>
</svg>
