<svg width="16" height="16" viewBox="0 0 16 16" fill="none" xmlns="http://www.w3.org/2000/svg">
<path d="M7.33316 13.3334C6.16253 13.3369 5.03333 12.9004 4.1695 12.1103C3.30568 11.3203 2.77033 10.2344 2.66965 9.06811C2.56896 7.90182 2.91028 6.74028 3.62592 5.81387C4.34156 4.88746 5.37924 4.26384 6.53316 4.06671C10.3332 3.33337 11.3332 2.98671 12.6665 1.33337C13.3332 2.66671 13.9998 4.12004 13.9998 6.66671C13.9998 10.3334 10.8132 13.3334 7.33316 13.3334Z" stroke="#4ABC96" stroke-width="1.2" stroke-linecap="round" stroke-linejoin="round"/>
<path d="M1.3335 14C1.3335 12 2.56683 10.4267 4.72016 10C6.3335 9.68 8.00016 8.66667 8.66683 8" stroke="#4ABC96" stroke-width="1.2" stroke-linecap="round" stroke-linejoin="round"/>
</svg>
