<svg width="16" height="16" viewBox="0 0 16 16" fill="none" xmlns="http://www.w3.org/2000/svg">
<path d="M10.9334 9.13329C11.4802 8.72237 11.9219 8.18785 12.2225 7.57345C12.5231 6.95905 12.6739 6.28222 12.6628 5.59833C12.6516 4.91444 12.4787 4.24291 12.1582 3.63866C11.8377 3.03441 11.3787 2.51461 10.8188 2.12178C10.2589 1.72895 9.61389 1.47424 8.93665 1.37849C8.2594 1.28274 7.5691 1.34866 6.92222 1.57087C6.27534 1.79308 5.69025 2.16526 5.2148 2.65698C4.73935 3.14869 4.38705 3.74597 4.18672 4.39995C3.45338 6.48662 3.66672 6.99995 2.06672 8.45329C1.74789 8.71467 1.51763 9.06819 1.40746 9.46547C1.29728 9.86275 1.31257 10.2844 1.45123 10.6726C1.5899 11.0609 1.84516 11.3968 2.18208 11.6344C2.519 11.872 2.92111 11.9997 3.33338 12C6.00005 12 8.93338 10.8 10.9334 9.13329Z" stroke="#D76261" stroke-width="1.2" stroke-linecap="round" stroke-linejoin="round"/>
<path d="M12.3334 4L13.7934 7C14.0729 7.85924 14.0759 8.78448 13.802 9.64552C13.5282 10.5066 12.9912 11.2601 12.2668 11.8C10.2668 13.4667 7.33343 14.6667 4.66676 14.6667C4.2956 14.6662 3.93189 14.5624 3.61635 14.3669C3.30081 14.1715 3.04589 13.8921 2.8801 13.56L1.6001 11" stroke="#D76261" stroke-width="1.2" stroke-linecap="round" stroke-linejoin="round"/>
<path d="M8.33341 7.33333C9.25389 7.33333 10.0001 6.58714 10.0001 5.66667C10.0001 4.74619 9.25389 4 8.33341 4C7.41294 4 6.66675 4.74619 6.66675 5.66667C6.66675 6.58714 7.41294 7.33333 8.33341 7.33333Z" stroke="#D76261" stroke-width="1.2" stroke-linecap="round" stroke-linejoin="round"/>
</svg>
