<svg width="17" height="16" viewBox="0 0 17 16" fill="none" xmlns="http://www.w3.org/2000/svg">
<path d="M1.83337 8H15.1667" stroke="white" stroke-width="1.6" stroke-linecap="round" stroke-linejoin="round"/>
<path d="M13.8333 8V13.3333C13.8333 13.687 13.6928 14.0261 13.4428 14.2761C13.1927 14.5262 12.8536 14.6667 12.5 14.6667H4.49996C4.14634 14.6667 3.8072 14.5262 3.55715 14.2761C3.3071 14.0261 3.16663 13.687 3.16663 13.3333V8" stroke="white" stroke-width="1.6" stroke-linecap="round" stroke-linejoin="round"/>
<path d="M3.16663 5.33329L13.8333 2.66663" stroke="white" stroke-width="1.6" stroke-linecap="round" stroke-linejoin="round"/>
<path d="M6.40667 4.52003L6.10667 3.31336C6.06368 3.14352 6.0546 2.96687 6.07992 2.79351C6.10525 2.62015 6.16449 2.45348 6.25427 2.30303C6.34404 2.15258 6.46259 2.02129 6.60313 1.91668C6.74367 1.81207 6.90345 1.73619 7.07333 1.69336L8.36667 1.37336C8.53696 1.33049 8.71405 1.32167 8.88775 1.34742C9.06146 1.37318 9.22837 1.43299 9.3789 1.52343C9.52943 1.61387 9.66061 1.73316 9.76491 1.87444C9.86921 2.01572 9.94457 2.17621 9.98667 2.3467L10.2867 3.5467" stroke="white" stroke-width="1.6" stroke-linecap="round" stroke-linejoin="round"/>
</svg>
