<svg width="17" height="14" viewBox="0 0 17 14" fill="none" xmlns="http://www.w3.org/2000/svg">
<g clip-path="url(#clip0_58_3054)">
<path d="M6.53353 0.481631L7.40053 1.69123C5.56453 2.76643 4.34053 3.84163 3.72853 4.91683C3.08253 6.02563 2.75953 7.21843 2.75953 8.49523L1.58653 10.612C1.58653 9.80563 1.85853 9.13363 2.40253 8.59603C2.91253 8.09203 3.55853 7.84003 4.34053 7.84003C5.08853 7.84003 5.73453 8.09203 6.27853 8.59603C6.82253 9.10003 7.09453 9.75523 7.09453 10.5616C7.09453 11.368 6.80553 12.04 6.22753 12.5776C5.64953 13.1152 4.90153 13.384 3.98353 13.384C2.89553 13.384 2.02853 12.9808 1.38253 12.1744C0.702532 11.4016 0.362532 10.3264 0.362532 8.94883C0.362532 7.40323 0.855533 5.87443 1.84153 4.36243C2.82753 2.88403 4.39153 1.59043 6.53353 0.481631ZM15.1525 0.481631L16.0195 1.69123C14.1835 2.76643 12.9595 3.84163 12.3475 4.91683C11.7015 6.02563 11.3785 7.21843 11.3785 8.49523L10.2055 10.612C10.2055 9.80563 10.4775 9.13363 11.0215 8.59603C11.5315 8.09203 12.1775 7.84003 12.9595 7.84003C13.7075 7.84003 14.3535 8.09203 14.8975 8.59603C15.4415 9.10003 15.7135 9.75523 15.7135 10.5616C15.7135 11.368 15.4245 12.04 14.8465 12.5776C14.2685 13.1152 13.5205 13.384 12.6025 13.384C11.5145 13.384 10.6475 12.9808 10.0015 12.1744C9.32153 11.4016 8.98153 10.3264 8.98153 8.94883C8.98153 7.40323 9.47453 5.87443 10.4605 4.36243C11.4465 2.88403 13.0105 1.59043 15.1525 0.481631Z" fill="#2B2E33"/>
</g>
<defs>
<clipPath id="clip0_58_3054">
<rect width="17" height="14" fill="white" transform="matrix(-1 0 0 -1 17 14)"/>
</clipPath>
</defs>
</svg>
