<svg width="17" height="16" viewBox="0 0 17 16" fill="none" xmlns="http://www.w3.org/2000/svg">
<g clip-path="url(#clip0_3_854)">
<path d="M3.49996 11C2.49996 11.84 2.16663 14.3333 2.16663 14.3333C2.16663 14.3333 4.65996 14 5.49996 13C5.97329 12.44 5.96663 11.58 5.43996 11.06C5.18083 10.8126 4.83949 10.6697 4.48144 10.6587C4.1234 10.6476 3.77388 10.7691 3.49996 11Z" stroke="white" stroke-width="1.7" stroke-linecap="round" stroke-linejoin="round"/>
<path d="M8.5 9.99996L6.5 7.99996C6.85476 7.07958 7.30147 6.19734 7.83333 5.36663C8.61012 4.12462 9.69175 3.10199 10.9753 2.39602C12.2589 1.69005 13.7018 1.32421 15.1667 1.3333C15.1667 3.14663 14.6467 6.3333 11.1667 8.66663C10.3246 9.19911 9.43123 9.64579 8.5 9.99996Z" stroke="white" stroke-width="1.7" stroke-linecap="round" stroke-linejoin="round"/>
<path d="M6.49996 7.99997H3.16663C3.16663 7.99997 3.53329 5.97997 4.49996 5.33331C5.57996 4.61331 7.83329 5.33331 7.83329 5.33331" stroke="white" stroke-width="1.7" stroke-linecap="round" stroke-linejoin="round"/>
<path d="M8.5 9.99996V13.3333C8.5 13.3333 10.52 12.9666 11.1667 12C11.8867 10.92 11.1667 8.66663 11.1667 8.66663" stroke="white" stroke-width="1.7" stroke-linecap="round" stroke-linejoin="round"/>
</g>
<defs>
<clipPath id="clip0_3_854">
<rect width="16" height="16" fill="white" transform="translate(0.5)"/>
</clipPath>
</defs>
</svg>
