<svg width="16" height="16" viewBox="0 0 16 16" fill="none" xmlns="http://www.w3.org/2000/svg">
<path d="M4 4.11137C3.99994 3.91588 4.05211 3.72383 4.15124 3.55462C4.25036 3.38541 4.39294 3.24503 4.56457 3.14765C4.73619 3.05027 4.9308 2.99934 5.12873 3.00001C5.32666 3.00067 5.52091 3.0529 5.69187 3.15143L12.4397 7.03895C12.61 7.13655 12.7513 7.27657 12.8497 7.44504C12.948 7.61351 12.9998 7.80451 13 7.99897C13.0002 8.19342 12.9487 8.38451 12.8506 8.55315C12.7526 8.72178 12.6115 8.86205 12.4413 8.95994L5.69187 12.8486C5.52091 12.9471 5.32666 12.9993 5.12873 13C4.9308 13.0007 4.73619 12.9497 4.56457 12.8523C4.39294 12.755 4.25036 12.6146 4.15124 12.4454C4.05211 12.2762 3.99994 12.0841 4 11.8886V4.11137Z" stroke="white" stroke-width="1.2" stroke-linecap="round" stroke-linejoin="round"/>
</svg>
