<svg width="17" height="14" viewBox="0 0 17 14" fill="none" xmlns="http://www.w3.org/2000/svg">
<g clip-path="url(#clip0_58_3056)">
<path d="M10.4665 13.5184L9.59947 12.3088C11.4355 11.2336 12.6595 10.1584 13.2715 9.08317C13.9175 7.97437 14.2405 6.78157 14.2405 5.50477L15.4135 3.38797C15.4135 4.19437 15.1415 4.86637 14.5975 5.40397C14.0875 5.90797 13.4415 6.15997 12.6595 6.15997C11.9115 6.15997 11.2655 5.90797 10.7215 5.40397C10.1775 4.89997 9.90547 4.24477 9.90547 3.43837C9.90547 2.63197 10.1945 1.95997 10.7725 1.42237C11.3505 0.884767 12.0985 0.615967 13.0165 0.615967C14.1045 0.615967 14.9715 1.01917 15.6175 1.82557C16.2975 2.59837 16.6375 3.67357 16.6375 5.05117C16.6375 6.59677 16.1445 8.12557 15.1585 9.63757C14.1725 11.116 12.6085 12.4096 10.4665 13.5184ZM1.84747 13.5184L0.980469 12.3088C2.81647 11.2336 4.04047 10.1584 4.65247 9.08317C5.29847 7.97437 5.62147 6.78157 5.62147 5.50477L6.79447 3.38797C6.79447 4.19437 6.52247 4.86637 5.97847 5.40397C5.46847 5.90797 4.82247 6.15997 4.04047 6.15997C3.29247 6.15997 2.64647 5.90797 2.10247 5.40397C1.55847 4.89997 1.28647 4.24477 1.28647 3.43837C1.28647 2.63197 1.57547 1.95997 2.15347 1.42237C2.73147 0.884767 3.47947 0.615967 4.39747 0.615967C5.48547 0.615967 6.35247 1.01917 6.99847 1.82557C7.67847 2.59837 8.01847 3.67357 8.01847 5.05117C8.01847 6.59677 7.52547 8.12557 6.53947 9.63757C5.55347 11.116 3.98947 12.4096 1.84747 13.5184Z" fill="#2B2E33"/>
</g>
<defs>
<clipPath id="clip0_58_3056">
<rect width="17" height="14" fill="white"/>
</clipPath>
</defs>
</svg>
